<?xml version="1.0" encoding="UTF-8"?>
<svg width="32px" height="32px" viewBox="0 0 32 32" version="1.1" xmlns="http://www.w3.org/2000/svg" xmlns:xlink="http://www.w3.org/1999/xlink">
    <!-- Generator: Sketch 47.1 (45422) - http://www.bohemiancoding.com/sketch -->
    <title>stickers/powerful</title>
    <desc>Created with Sketch.</desc>
    <defs></defs>
    <g id="Symbols" stroke="none" stroke-width="1" fill="none" fill-rule="evenodd">
        <g id="stickers/powerful">
            <g id="Group" transform="translate(10.000000, 5.000000)">
                <polygon id="Fill-1" fill="#B0D9EA" points="2.25 0.2503 0.25 11.2503 5.25 11.2503 3.25 21.2503 11.25 9.2503 7.249 9.2503 11.25 0.2503"></polygon>
                <path d="M0.5497,11.0002 L5.2497,11.0002 C5.3247,11.0002 5.3957,11.0342 5.4437,11.0912 C5.4907,11.1492 5.5097,11.2262 5.4947,11.2992 L3.7427,20.0602 L10.7827,9.5002 L7.2497,9.5002 C7.1647,9.5002 7.0867,9.4572 7.0397,9.3862 C6.9937,9.3152 6.9867,9.2262 7.0217,9.1482 L10.8647,0.5002 L2.4587,0.5002 L0.5497,11.0002 Z M3.2497,21.5002 C3.2177,21.5002 3.1857,21.4942 3.1537,21.4812 C3.0437,21.4352 2.9817,21.3182 3.0047,21.2012 L4.9457,11.5002 L0.2497,11.5002 C0.1757,11.5002 0.1057,11.4672 0.0577,11.4102 C0.0107,11.3532 -0.0093,11.2782 0.0037,11.2052 L2.0037,0.2052 C2.0257,0.0862 2.1287,0.0002 2.2497,0.0002 L11.2497,0.0002 C11.3347,0.0002 11.4127,0.0432 11.4597,0.1142 C11.5057,0.1852 11.5127,0.2742 11.4787,0.3522 L7.6347,9.0002 L11.2497,9.0002 C11.3417,9.0002 11.4267,9.0512 11.4707,9.1322 C11.5137,9.2132 11.5087,9.3122 11.4577,9.3892 L3.4577,21.3892 C3.4097,21.4602 3.3307,21.5002 3.2497,21.5002 L3.2497,21.5002 Z" id="Fill-2" fill="#2D2D2D"></path>
                <path d="M3.2499,21.5002 C3.2149,21.5002 3.1799,21.4932 3.1459,21.4772 C3.0209,21.4202 2.9649,21.2712 3.0219,21.1462 L8.3599,9.5002 L4.2499,9.5002 C4.1719,9.5002 4.0989,9.4632 4.0509,9.4012 C4.0039,9.3392 3.9879,9.2582 4.0089,9.1832 L6.5089,0.1832 C6.5469,0.0492 6.6859,-0.0278 6.8169,0.0092 C6.9499,0.0462 7.0269,0.1842 6.9909,0.3172 L4.5789,9.0002 L8.7499,9.0002 C8.8349,9.0002 8.9139,9.0432 8.9599,9.1152 C9.0069,9.1872 9.0129,9.2772 8.9779,9.3542 L3.4779,21.3542 C3.4359,21.4462 3.3449,21.5002 3.2499,21.5002" id="Fill-5" fill="#2D2D2D"></path>
            </g>
        </g>
    </g>
</svg>