<?xml version="1.0" encoding="UTF-8"?>
<svg width="32px" height="32px" viewBox="0 0 32 32" version="1.1" xmlns="http://www.w3.org/2000/svg" xmlns:xlink="http://www.w3.org/1999/xlink">
    <!-- Generator: Sketch 47.1 (45422) - http://www.bohemiancoding.com/sketch -->
    <title>stickers/beginner</title>
    <desc>Created with Sketch.</desc>
    <defs></defs>
    <g id="Symbols" stroke="none" stroke-width="1" fill="none" fill-rule="evenodd">
        <g id="stickers/beginner">
            <g id="Group" transform="translate(10.000000, 5.000000)">
                <path d="M0.2589,12.2499 L2.2589,20.2499 C2.2589,20.2499 2.7589,21.2499 6.2589,21.2499 C9.7589,21.2499 10.2589,20.2499 10.2589,20.2499 L12.2589,12.2499 C12.2589,12.2499 12.7589,11.2499 6.2589,11.2499 C-0.2411,11.2499 0.2589,12.2499 0.2589,12.2499" id="Fill-1" fill="#F4C2B5"></path>
                <path d="M0.4825,12.1381 L0.4825,12.1391 L0.4825,12.1381 Z M0.4825,12.1391 C0.4835,12.1391 0.4835,12.1391 0.4835,12.1391 C0.4835,12.1391 0.4835,12.1391 0.4825,12.1391 L0.4825,12.1391 Z M0.4835,12.1391 L0.4835,12.1401 L0.4835,12.1391 Z M12.0165,12.1891 C12.0135,12.1901 12.0135,12.1941 12.0135,12.1991 L12.0165,12.1891 Z M2.4915,20.1471 C2.5885,20.2711 3.2955,21.0001 6.2585,21.0001 C9.2215,21.0001 9.9285,20.2711 10.0265,20.1471 L12.0115,12.2071 C11.9345,12.1011 11.2775,11.5001 6.2585,11.5001 C1.2405,11.5001 0.5835,12.1011 0.5055,12.2071 L2.4915,20.1471 Z M6.2585,21.5001 C2.7075,21.5001 2.0935,20.4781 2.0355,20.3621 L0.0205,12.3251 C-0.0125,12.2321 -0.0125,12.0961 0.0735,11.9551 C0.4655,11.3211 2.5465,11.0001 6.2585,11.0001 C9.9705,11.0001 12.0515,11.3211 12.4445,11.9551 C12.5425,12.1151 12.5285,12.2701 12.4825,12.3621 L10.5015,20.3101 C10.4235,20.4781 9.8105,21.5001 6.2585,21.5001 L6.2585,21.5001 Z" id="Fill-3" fill="#2D2D2D"></path>
                <path d="M6.2589,10.2499 C6.2589,10.2499 11.2589,6.2499 8.7589,0.2499 C8.7589,0.2499 1.2589,3.2499 6.2589,10.2499" id="Fill-6" fill="#89CEA5"></path>
                <path d="M8.6241,0.5853 C7.8951,0.9353 5.6321,2.1833 4.9751,4.4333 C4.4981,6.0623 4.9461,7.8933 6.3051,9.8793 C7.1981,9.0703 10.5601,5.5903 8.6241,0.5853 M6.2591,10.5003 C6.2471,10.5003 6.2361,10.4993 6.2251,10.4973 C6.1561,10.4883 6.0961,10.4513 6.0561,10.3953 C4.4791,8.1893 3.9551,6.1353 4.4951,4.2903 C5.3501,1.3743 8.5311,0.0713 8.6661,0.0183 C8.7921,-0.0327 8.9361,0.0273 8.9891,0.1533 C11.5321,6.2563 6.4671,10.4033 6.4151,10.4453 C6.3701,10.4813 6.3151,10.5003 6.2591,10.5003" id="Fill-8" fill="#2D2D2D"></path>
                <path d="M12.2589,11.9999 C12.2589,12.4139 10.6769,12.7499 6.2589,12.7499 C1.8409,12.7499 0.2589,12.4139 0.2589,11.9999 C0.2589,11.5859 1.8409,11.2499 6.2589,11.2499 C10.6769,11.2499 12.2589,11.5859 12.2589,11.9999" id="Fill-10" fill="#99806E"></path>
                <path d="M12.0186,12.039 L12.0246,12.039 L12.0186,12.039 Z M0.5436,12 C0.7376,12.13 1.6896,12.5 6.2586,12.5 C10.8286,12.5 11.7806,12.13 11.9736,12 C11.7806,11.87 10.8286,11.5 6.2586,11.5 C1.6896,11.5 0.7376,11.87 0.5436,12 L0.5436,12 Z M6.2586,13 C0.0086,13 0.0086,12.35 0.0086,12 C0.0086,11.65 0.0086,11 6.2586,11 C12.5086,11 12.5086,11.65 12.5086,12 C12.5086,12.35 12.5086,13 6.2586,13 L6.2586,13 Z" id="Fill-12" fill="#2D2D2D"></path>
                <path d="M6.2589,12.9999 C6.1389,12.9999 6.0319,12.9139 6.0119,12.7909 C5.9709,12.5419 5.0259,6.6509 7.5469,2.6179 C7.6199,2.4999 7.7749,2.4649 7.8919,2.5379 C8.0089,2.6109 8.0439,2.7659 7.9709,2.8819 C5.5489,6.7569 6.4949,12.6499 6.5059,12.7089 C6.5289,12.8449 6.4369,12.9739 6.2999,12.9969 C6.2859,12.9989 6.2729,12.9999 6.2589,12.9999" id="Fill-14" fill="#2D2D2D"></path>
                <path d="M3.2589,17.9999 C3.1499,17.9999 3.0499,17.9289 3.0189,17.8189 L2.0189,14.3189 C1.9809,14.1859 2.0579,14.0469 2.1909,14.0099 C2.3239,13.9699 2.4619,14.0489 2.4989,14.1809 L3.4989,17.6809 C3.5369,17.8139 3.4599,17.9529 3.3269,17.9899 C3.3049,17.9969 3.2809,17.9999 3.2589,17.9999" id="Fill-16" fill="#2D2D2D"></path>
            </g>
        </g>
    </g>
</svg>