<?xml version="1.0" encoding="UTF-8"?>
<svg width="32px" height="32px" viewBox="0 0 32 32" version="1.1" xmlns="http://www.w3.org/2000/svg" xmlns:xlink="http://www.w3.org/1999/xlink">
    <!-- Generator: Sketch 47.1 (45422) - http://www.bohemiancoding.com/sketch -->
    <title>stickers/clitoral</title>
    <desc>Created with Sketch.</desc>
    <defs></defs>
    <g id="Symbols" stroke="none" stroke-width="1" fill="none" fill-rule="evenodd">
        <g id="stickers/clitoral">
            <g id="Group" transform="translate(4.000000, 5.000000)">
                <path d="M22.5527,9.8096 C21.7917,4.4086 17.1627,0.2496 11.5527,0.2496 C5.9427,0.2496 1.3137,4.4086 0.5527,9.8096 L11.5527,16.8306 L22.5527,9.8096 Z" id="Fill-1" fill="#D3D1F2"></path>
                <path d="M0.8237,9.686 L11.5527,16.534 L22.2817,9.686 C21.4627,4.438 16.8787,0.5 11.5527,0.5 C6.2267,0.5 1.6427,4.438 0.8237,9.686 M11.5527,17.081 C11.5057,17.081 11.4597,17.067 11.4187,17.041 L0.4187,10.02 C0.3357,9.968 0.2917,9.872 0.3047,9.775 C1.0907,4.202 5.9257,0 11.5527,0 C17.1797,0 22.0147,4.202 22.8007,9.775 C22.8137,9.872 22.7697,9.968 22.6867,10.02 L11.6867,17.041 C11.6457,17.067 11.5997,17.081 11.5527,17.081" id="Fill-3" fill="#2D2D2D"></path>
                <path d="M11.5527,14.8457 C11.4147,14.8457 11.3027,14.7337 11.3027,14.5957 L11.3027,0.2587 C11.3027,0.1207 11.4147,0.0087 11.5527,0.0087 C11.6907,0.0087 11.8027,0.1207 11.8027,0.2587 L11.8027,14.5957 C11.8027,14.7337 11.6907,14.8457 11.5527,14.8457" id="Fill-6" fill="#2D2D2D"></path>
                <path d="M11.5527,17.0806 C11.4807,17.0806 11.4097,17.0496 11.3597,16.9896 L1.9557,5.6136 C1.8677,5.5066 1.8827,5.3496 1.9897,5.2616 C2.0947,5.1736 2.2527,5.1876 2.3417,5.2946 L11.7457,16.6716 C11.8337,16.7776 11.8187,16.9346 11.7117,17.0236 C11.6657,17.0616 11.6087,17.0806 11.5527,17.0806" id="Fill-8" fill="#2D2D2D"></path>
                <path d="M11.5527,17.0806 C11.4497,17.0806 11.3537,17.0176 11.3177,16.9146 L5.8667,1.7646 C5.8207,1.6346 5.8877,1.4916 6.0177,1.4446 C6.1457,1.3976 6.2907,1.4656 6.3377,1.5956 L11.7877,16.7466 C11.8347,16.8756 11.7667,17.0186 11.6367,17.0656 C11.6097,17.0756 11.5807,17.0806 11.5527,17.0806" id="Fill-10" fill="#2D2D2D"></path>
                <path d="M11.5527,17.0806 C11.4967,17.0806 11.4397,17.0616 11.3937,17.0236 C11.2867,16.9346 11.2717,16.7776 11.3597,16.6716 L20.7637,5.2946 C20.8527,5.1876 21.0107,5.1736 21.1157,5.2616 C21.2227,5.3496 21.2377,5.5066 21.1497,5.6136 L11.7457,16.9896 C11.6957,17.0496 11.6247,17.0806 11.5527,17.0806" id="Fill-12" fill="#2D2D2D"></path>
                <path d="M11.5527,17.0806 C11.5247,17.0806 11.4957,17.0756 11.4687,17.0656 C11.3387,17.0186 11.2707,16.8756 11.3177,16.7466 L16.7677,1.5956 C16.8147,1.4656 16.9577,1.3986 17.0877,1.4446 C17.2177,1.4916 17.2847,1.6346 17.2387,1.7646 L11.7877,16.9146 C11.7517,17.0176 11.6557,17.0806 11.5527,17.0806" id="Fill-14" fill="#2D2D2D"></path>
                <path d="M15.5527,12.4844 C15.5527,10.2764 13.7617,8.4844 11.5527,8.4844 C9.3437,8.4844 7.5527,10.2764 7.5527,12.4844 C7.5527,14.6924 9.3437,16.4844 11.5527,16.4844 C13.7617,16.4844 15.5527,14.6924 15.5527,12.4844" id="Fill-16" fill="#FFFFFF"></path>
                <path d="M11.5527,8.7344 C9.4847,8.7344 7.8027,10.4164 7.8027,12.4844 C7.8027,14.5524 9.4847,16.2344 11.5527,16.2344 C13.6207,16.2344 15.3027,14.5524 15.3027,12.4844 C15.3027,10.4164 13.6207,8.7344 11.5527,8.7344 M11.5527,16.7344 C9.2097,16.7344 7.3027,14.8274 7.3027,12.4844 C7.3027,10.1414 9.2097,8.2344 11.5527,8.2344 C13.8957,8.2344 15.8027,10.1414 15.8027,12.4844 C15.8027,14.8274 13.8957,16.7344 11.5527,16.7344" id="Fill-18" fill="#2D2D2D"></path>
                <path d="M11.5527,10.082 C10.2257,10.082 9.1507,11.158 9.1507,12.484" id="Fill-20" fill="#FFFFFF"></path>
                <path d="M9.1504,12.7344 C9.0124,12.7344 8.9004,12.6224 8.9004,12.4844 C8.9004,11.0224 10.0904,9.8324 11.5524,9.8324 C11.6914,9.8324 11.8024,9.9434 11.8024,10.0824 C11.8024,10.2204 11.6914,10.3324 11.5524,10.3324 C10.3654,10.3324 9.4004,11.2974 9.4004,12.4844 C9.4004,12.6224 9.2884,12.7344 9.1504,12.7344" id="Fill-22" fill="#2D2D2D"></path>
                <path d="M0.25,14.5957 C1.899,19.2527 6.33,22.5957 11.553,22.5957 C16.775,22.5957 21.206,19.2527 22.855,14.5957 L0.25,14.5957 Z" id="Fill-24" fill="#D3D1F2"></path>
                <path d="M0.6094,14.8457 C2.3584,19.3457 6.7114,22.3457 11.5524,22.3457 C16.3944,22.3457 20.7474,19.3457 22.4964,14.8457 L0.6094,14.8457 Z M11.5524,22.8457 C6.3814,22.8457 1.7444,19.5637 0.0144,14.6787 C-0.0126,14.6027 -0.0006,14.5177 0.0464,14.4517 C0.0924,14.3857 0.1694,14.3457 0.2504,14.3457 L22.8554,14.3457 C22.9364,14.3457 23.0124,14.3857 23.0594,14.4517 C23.1064,14.5177 23.1184,14.6027 23.0914,14.6787 C21.3614,19.5637 16.7244,22.8457 11.5524,22.8457 L11.5524,22.8457 Z" id="Fill-26" fill="#2D2D2D"></path>
                <path d="M3.8765,14.8457 C5.1065,19.3457 8.1615,22.3457 11.5525,22.3457 C14.9435,22.3457 17.9995,19.3457 19.2295,14.8457 L3.8765,14.8457 Z M11.5525,22.8457 C7.8515,22.8457 4.5385,19.5537 3.3105,14.6567 C3.2915,14.5817 3.3085,14.5027 3.3555,14.4417 C3.4025,14.3817 3.4755,14.3457 3.5525,14.3457 L19.5525,14.3457 C19.6295,14.3457 19.7025,14.3817 19.7505,14.4417 C19.7975,14.5027 19.8145,14.5817 19.7955,14.6567 C18.5665,19.5537 15.2545,22.8457 11.5525,22.8457 L11.5525,22.8457 Z" id="Fill-29" fill="#2D2D2D"></path>
                <path d="M7.8374,14.8457 C8.4394,19.2767 9.9514,22.3457 11.5524,22.3457 C13.1534,22.3457 14.6664,19.2767 15.2684,14.8457 L7.8374,14.8457 Z M11.5524,22.8457 C9.5984,22.8457 7.9304,19.6187 7.3044,14.6267 C7.2954,14.5557 7.3174,14.4837 7.3654,14.4297 C7.4124,14.3767 7.4814,14.3457 7.5524,14.3457 L15.5524,14.3457 C15.6244,14.3457 15.6924,14.3767 15.7404,14.4297 C15.7874,14.4837 15.8094,14.5557 15.8004,14.6267 C15.1744,19.6187 13.5074,22.8457 11.5524,22.8457 L11.5524,22.8457 Z" id="Fill-32" fill="#2D2D2D"></path>
                <path d="M11.5527,22.8452 C11.4147,22.8452 11.3027,22.7332 11.3027,22.5952 L11.3027,14.5952 C11.3027,14.4572 11.4147,14.3452 11.5527,14.3452 C11.6907,14.3452 11.8027,14.4572 11.8027,14.5952 L11.8027,22.5952 C11.8027,22.7332 11.6907,22.8452 11.5527,22.8452" id="Fill-35" fill="#2D2D2D"></path>
            </g>
        </g>
    </g>
</svg>