<?xml version="1.0" encoding="UTF-8"?>
<svg width="100px" height="24px" viewBox="0 0 100 24" version="1.1" xmlns="http://www.w3.org/2000/svg" xmlns:xlink="http://www.w3.org/1999/xlink">
    <!-- Generator: Sketch 42 (36781) - http://www.bohemiancoding.com/sketch -->
    <title>logo</title>
    <desc>Created with Sketch.</desc>
    <defs></defs>
    <g id="Web" stroke="none" stroke-width="1" fill="none" fill-rule="evenodd">
        <g id="logo" fill="#2D2D2D">
            <path d="M0.598064516,10.350271 L7.4636129,10.0947871 L6.13741935,19.9967226 C6.13741935,19.9967226 5.98954839,20.4651097 6.37354839,20.4651097 C6.75754839,20.4651097 7.40012903,19.5476903 7.63548387,18.2199484 C7.8716129,16.8960774 8.68219355,11.4836903 8.74645161,11.0578839 C8.81225806,10.6282065 8.17045161,10.5221419 8.17045161,10.5221419 L8.08451613,10.3688516 L15.1203871,10.0483355 L14.8455484,12.5087226 C14.8455484,12.5087226 14.9090323,12.5954323 15.0592258,12.5954323 C15.207871,12.5954323 16.7043871,9.81530323 19.6563871,9.81530323 C22.4349677,9.81530323 22.6292903,11.6965935 22.3296774,14.1368516 C22.0292903,16.5747871 21.4517419,20.7236903 21.4517419,20.7236903 C21.4517419,20.7236903 21.4091613,21.0008516 21.5802581,21.0008516 C21.7513548,21.0008516 21.9456774,20.9172387 21.9456774,20.9172387 L22.1144516,21.0867871 C22.1144516,21.0867871 19.6966452,23.118271 17.6225806,23.118271 C15.5477419,23.118271 14.8858065,21.4940129 15.3572903,18.4591742 C15.8272258,15.4189161 16.4465806,12.6821419 16.0207742,12.6821419 C15.591871,12.6821419 13.2816774,14.542529 10.9072258,16.9169806 C8.53432258,19.2906581 5.23858065,22.8627871 2.48167742,22.8627871 C-0.278322581,22.8627871 -0.127354839,20.5100129 0.130451613,18.4978839 C0.384387097,16.4896258 1.00529032,11.4202065 1.04787097,11.0578839 C1.08967742,10.6909161 0.577935484,10.5624 0.577935484,10.5624 L0.598064516,10.350271 Z" id="Fill-1"></path>
            <path d="M57.9994839,10.350271 L64.8650323,10.0947871 L63.5380645,19.9967226 C63.5380645,19.9967226 63.387871,20.4651097 63.7726452,20.4651097 C64.1581935,20.4651097 64.8,19.5476903 65.0345806,18.2199484 C65.2691613,16.8960774 66.0805161,11.4836903 66.147871,11.0578839 C66.2113548,10.6282065 65.571871,10.5221419 65.571871,10.5221419 L65.4843871,10.3688516 L72.5202581,10.0483355 L72.2423226,12.5087226 C72.2423226,12.5087226 72.3065806,12.5954323 72.4575484,12.5954323 C72.6077419,12.5954323 74.1050323,9.81530323 77.0547097,9.81530323 C79.8356129,9.81530323 80.0291613,11.6965935 79.7287742,14.1368516 C79.4299355,16.5747871 78.8523871,20.7236903 78.8523871,20.7236903 C78.8523871,20.7236903 78.8067097,21.0008516 78.9816774,21.0008516 C79.1512258,21.0008516 79.3455484,20.9172387 79.3455484,20.9172387 L79.515871,21.0867871 C79.515871,21.0867871 77.0965161,23.118271 75.024,23.118271 C72.9499355,23.118271 72.2872258,21.4940129 72.7556129,18.4591742 C73.2270968,15.4189161 73.8464516,12.6821419 73.4190968,12.6821419 C72.9917419,12.6821419 70.6815484,14.542529 68.3070968,16.9169806 C65.9341935,19.2906581 62.64,22.8627871 59.8815484,22.8627871 C57.1215484,22.8627871 57.2717419,20.5100129 57.5287742,18.4978839 C57.7842581,16.4896258 58.4059355,11.4202065 58.4469677,11.0578839 C58.491871,10.6909161 57.9778065,10.5624 57.9778065,10.5624 L57.9994839,10.350271 Z" id="Fill-3"></path>
            <path d="M31.8893419,16.9385032 C31.6338581,19.1619871 31.3110194,22.4972129 30.4764387,22.4972129 C29.6449548,22.4972129 30.6274065,15.5472774 30.9053419,14.0925677 C31.1848258,12.6401806 31.6121806,12.3397935 31.9760516,12.3397935 C32.4901161,12.3397935 32.1463742,14.7119226 31.8893419,16.9385032 M35.7386323,9.81514839 C32.9368258,9.81514839 30.9053419,12.4884387 30.9053419,12.4884387 L30.7342452,12.2755355 C30.7342452,12.2755355 31.5889548,6.20043871 31.7832774,4.21076129 C31.9760516,2.22263226 30.3719226,1.34392258 28.9373419,1.34392258 C27.5050839,1.34392258 26.3283097,1.70856774 24.125729,4.25411613 L24.3192774,4.44766452 C24.3192774,4.44766452 24.6606968,4.21076129 25.1964387,4.21076129 C25.7290839,4.21076129 24.4237935,12.9808258 24.1698581,15.6541161 C23.9120516,18.3274065 24.1698581,23.0112774 30.4764387,23.0112774 C36.7876645,23.0112774 38.8563097,17.6554065 39.053729,15.6750194 C39.2612129,13.6296 38.5404387,9.81514839 35.7386323,9.81514839" id="Fill-5"></path>
            <path d="M49.1080258,16.0199226 C48.6450581,21.0436645 48.2285419,23.0325677 47.5255742,23.0325677 C46.8179613,23.0325677 46.8388645,22.0284387 47.3521548,16.3164387 C47.8654452,10.6083097 48.5506065,9.94637419 48.9586065,9.94637419 C49.6623484,9.94637419 49.5756387,10.885471 49.1080258,16.0199226 M48.9787355,9.72882581 C45.8130581,9.72882581 41.2987355,11.5048258 40.5098323,16.2939871 C39.7178323,21.0870194 44.3591226,23.2261161 47.4605419,23.2261161 C50.5604129,23.2261161 55.4161548,21.1954065 55.8442839,16.3822452 C56.2731871,11.5706323 51.8866065,9.72882581 48.9787355,9.72882581" id="Fill-7"></path>
            <path d="M90.1073806,11.7572903 C90.0338323,12.7575484 89.6598968,17.0914839 89.4593806,18.5098065 C89.2604129,19.9296774 88.8392516,20.4282581 88.4629935,20.4282581 C88.0913806,20.4282581 87.8173161,19.8809032 87.8908645,19.0842581 C87.9644129,18.2860645 88.4397677,13.9018065 88.5891871,12.4060645 C88.7362839,10.9110968 89.1380903,10.2623226 89.5352516,10.2623226 C89.9331871,10.2623226 90.1832516,10.764 90.1073806,11.7572903 M97.2586065,-0.000387096774 C95.8627355,-0.000387096774 91.7765419,1.3923871 91.3282839,4.85612903 C90.8800258,8.32141935 90.7313806,9.98825806 90.7313806,9.98825806 C90.7313806,9.98825806 90.4573161,9.56477419 89.8836387,9.56477419 C89.3107355,9.56477419 82.3638968,9.73432258 81.3140903,16.7152258 C80.516671,22.0215484 83.780671,22.9211613 85.3004129,22.9211613 C86.8186065,22.9211613 88.5891871,22.0215484 89.2604129,20.5792258 C89.2604129,20.5792258 89.012671,23.0690323 91.5024774,23.0690323 C93.9953806,23.0690323 96.3868645,21.1753548 96.3868645,21.1753548 L96.3117677,21.0003871 C96.3117677,21.0003871 95.6893161,21.3 95.8379613,20.0550968 C95.9881548,18.8086452 97.6820903,5.15729032 97.8818323,3.26283871 C98.0800258,1.37070968 99.500671,1.11987097 99.500671,1.11987097 L99.500671,0.847354839 C99.500671,0.847354839 98.6537032,-0.000387096774 97.2586065,-0.000387096774" id="Fill-10"></path>
        </g>
    </g>
</svg>