<?xml version="1.0" encoding="UTF-8"?>
<svg width="24px" height="24px" viewBox="0 0 24 24" version="1.1" xmlns="http://www.w3.org/2000/svg" xmlns:xlink="http://www.w3.org/1999/xlink">
    <!-- Generator: Sketch 44.1 (41455) - http://www.bohemiancoding.com/sketch -->
    <title>icons/search</title>
    <desc>Created with Sketch.</desc>
    <defs></defs>
    <g id="Symbols" stroke="none" stroke-width="1" fill="none" fill-rule="evenodd">
        <g id="icons/search" fill="#2D2D2D">
            <path d="M4.5,10.5 C4.5,7.19175 7.19175,4.5 10.5,4.5 C13.80825,4.5 16.5,7.19175 16.5,10.5 C16.5,13.80825 13.80825,16.5 10.5,16.5 C7.19175,16.5 4.5,13.80825 4.5,10.5 L4.5,10.5 Z M20.78025,19.71975 L16.3035,15.243 C17.3625,13.95 18,12.29775 18,10.5 C18,6.3645 14.6355,3 10.5,3 C6.3645,3 3,6.3645 3,10.5 C3,14.6355 6.3645,18 10.5,18 C12.29775,18 13.95,17.3625 15.243,16.3035 L19.71975,20.78025 L20.78025,19.71975 Z" id="Page-1"></path>
        </g>
    </g>
</svg>