<?xml version="1.0" encoding="UTF-8"?>
<svg width="32px" height="32px" viewBox="0 0 32 32" version="1.1" xmlns="http://www.w3.org/2000/svg" xmlns:xlink="http://www.w3.org/1999/xlink">
    <!-- Generator: Sketch 47.1 (45422) - http://www.bohemiancoding.com/sketch -->
    <title>stickers/solo</title>
    <desc>Created with Sketch.</desc>
    <defs></defs>
    <g id="Symbols" stroke="none" stroke-width="1" fill="none" fill-rule="evenodd">
        <g id="stickers/solo">
            <g id="Group" transform="translate(9.000000, 5.000000)">
                <path d="M7.501,13.1636 C7.431,13.1636 7.36,13.1336 7.311,13.0756 L6.885,12.5766 C6.797,12.4736 6.809,12.3166 6.911,12.2266 C6.986,12.1596 8.756,10.5716 8.813,8.2726 C8.855,6.6076 8.007,4.9386 6.291,3.3126 C6.19,3.2176 6.187,3.0596 6.281,2.9596 L6.731,2.4836 C6.777,2.4356 6.84,2.4076 6.906,2.4056 L6.913,2.4056 C6.977,2.4056 7.038,2.4296 7.085,2.4736 C9.051,4.3356 10.022,6.2996 9.969,8.3096 C9.892,11.1976 7.753,13.0286 7.662,13.1046 C7.615,13.1446 7.558,13.1636 7.501,13.1636" id="Fill-1" fill="#89CEA5"></path>
                <path d="M6.9131,2.1553 L6.8991,2.1553 C6.7671,2.1593 6.6411,2.2153 6.5501,2.3113 L6.1001,2.7873 C5.9101,2.9883 5.9191,3.3043 6.1191,3.4943 C7.7811,5.0693 8.6031,6.6753 8.5631,8.2663 C8.5091,10.4563 6.8171,11.9753 6.7451,12.0383 C6.5411,12.2193 6.5171,12.5313 6.6951,12.7383 L7.1211,13.2383 C7.2201,13.3543 7.3601,13.4133 7.5011,13.4133 C7.6151,13.4133 7.7291,13.3753 7.8231,13.2963 C7.9171,13.2173 10.1391,11.3143 10.2191,8.3173 C10.2731,6.2323 9.2761,4.2053 7.2571,2.2923 C7.1641,2.2043 7.0411,2.1553 6.9131,2.1553 M6.9131,2.6553 C8.8261,4.4673 9.7691,6.3683 9.7191,8.3033 C9.6451,11.0543 7.5901,12.8393 7.5011,12.9133 L7.0751,12.4143 C7.0941,12.3983 9.0021,10.7363 9.0631,8.2793 C9.1071,6.5393 8.2321,4.8083 6.4631,3.1313 L6.9131,2.6553" id="Fill-3" fill="#2D2D2D"></path>
                <path d="M5.0518,21.1895 C2.4048,21.1895 0.2498,19.0355 0.2498,16.3875 C0.2498,13.7385 2.4048,11.5845 5.0518,11.5845 C7.6998,11.5845 9.8558,13.7385 9.8558,16.3875 C9.8558,19.0355 7.6998,21.1895 5.0518,21.1895" id="Fill-5" fill="#EA5D49"></path>
                <path d="M5.0518,11.3341 C2.2668,11.3341 -0.0002,13.6011 -0.0002,16.3871 C-0.0002,19.1731 2.2668,21.4391 5.0518,21.4391 C7.8378,21.4391 10.1058,19.1731 10.1058,16.3871 C10.1058,13.6011 7.8378,11.3341 5.0518,11.3341 M5.0518,11.8341 C7.5678,11.8341 9.6058,13.8731 9.6058,16.3871 C9.6058,18.9011 7.5678,20.9391 5.0518,20.9391 C2.5378,20.9391 0.4998,18.9011 0.4998,16.3871 C0.4998,13.8731 2.5378,11.8341 5.0518,11.8341" id="Fill-7" fill="#2D2D2D"></path>
                <path d="M2.0898,16.6368 C1.9518,16.6368 1.8398,16.5248 1.8398,16.3868 C1.8398,14.6158 3.2798,13.1738 5.0518,13.1738 C5.1898,13.1738 5.3018,13.2858 5.3018,13.4238 C5.3018,13.5618 5.1898,13.6738 5.0518,13.6738 C3.5568,13.6738 2.3398,14.8908 2.3398,16.3868 C2.3398,16.5248 2.2278,16.6368 2.0898,16.6368" id="Fill-10" fill="#2D2D2D"></path>
                <path d="M2.0156,0.5137 C2.0156,0.5137 4.6516,8.3257 14.4376,6.1897 C14.4376,6.1897 10.0216,-1.2343 2.0156,0.5137" id="Fill-12" fill="#89CEA5"></path>
                <path d="M2.3545,0.6993 C2.9065,2.0293 5.7615,7.6483 14.0265,6.0203 C13.1095,4.6903 8.9975,-0.5767 2.3545,0.6993 M11.2335,6.8063 C7.9415,6.8063 5.7455,5.5533 4.3895,4.3393 C2.4805,2.6283 1.8065,0.6763 1.7785,0.5943 C1.7555,0.5263 1.7625,0.4523 1.7975,0.3903 C1.8335,0.3283 1.8925,0.2843 1.9615,0.2693 C10.0575,-1.4957 14.6075,5.9863 14.6525,6.0623 C14.6935,6.1313 14.6995,6.2163 14.6675,6.2893 C14.6345,6.3633 14.5695,6.4173 14.4915,6.4343 C13.3025,6.6933 12.2185,6.8063 11.2335,6.8063" id="Fill-14" fill="#2D2D2D"></path>
                <path d="M14.4375,6.44 C14.4025,6.44 14.3675,6.433 14.3335,6.418 L1.9125,0.741 C1.7865,0.684 1.7305,0.535 1.7885,0.41 C1.8455,0.284 1.9965,0.23 2.1195,0.286 L14.5415,5.962 C14.6665,6.02 14.7225,6.169 14.6655,6.294 C14.6235,6.386 14.5325,6.44 14.4375,6.44" id="Fill-17" fill="#2D2D2D"></path>
            </g>
        </g>
    </g>
</svg>